<?xml version="1.0" encoding="utf-8"?>
<!-- Generator: Adobe Illustrator 15.0.0, SVG Export Plug-In . SVG Version: 6.00 Build 0)  -->
<!DOCTYPE svg PUBLIC "-//W3C//DTD SVG 1.1//EN" "http://www.w3.org/Graphics/SVG/1.1/DTD/svg11.dtd">
<svg version="1.1" id="Capa_1" xmlns="http://www.w3.org/2000/svg" xmlns:xlink="http://www.w3.org/1999/xlink" x="0px" y="0px"
	 width="1380px" height="1040.037px" viewBox="0 0 1380 1040.037" enable-background="new 0 0 1380 1040.037" xml:space="preserve">
	 <defs>
    <style type="text/css">
      <![CDATA[
			@font-face {
font-family: 'BauerBodni BT Bold';
font-style: normal;
font-weight: normal;
src: local('BauerBodni BT Bold'), url('BauerBodoni-Bold.woff') format('woff');
}
      ]]>
   </style>
  </defs>
<g>
	<polygon opacity="0.5" fill="#0DC9B7" points="0.001,1040.037 1380,899.545 1380,0 0.001,0 	"/>
	<path opacity="0.26" fill="#D7CAC1" d="M690.347,595.765c-104.375,0-188.988-84.486-188.988-188.707
		c0-104.217,84.613-188.705,188.988-188.705c104.376,0,188.989,84.487,188.989,188.705
		C879.336,511.279,794.723,595.765,690.347,595.765z"/>
	<path opacity="0.55" fill="#ABECE6" d="M0,0v896.027l1380,144.01V0H0z M690.347,595.765c-104.375,0-188.988-84.486-188.988-188.707
		c0-104.217,84.613-188.705,188.988-188.705c104.376,0,188.989,84.487,188.989,188.705
		C879.336,511.279,794.723,595.765,690.347,595.765z"/>
	<g>
		
			<path fill="none" stroke="#FFFFFF" stroke-width="4.017" stroke-linecap="round" stroke-linejoin="round" stroke-miterlimit="10" d="
			M502.928,445.81l254.067-107.657c0-13.783-11.192-24.957-24.994-24.957c-13.806,0-24.999,11.174-24.999,24.957l0.036,209.933
			c0,0,34.548-61.859,102.276-55.197c70.735,6.948,111.354-16.486,126.698-63.541"/>
		
			<path fill="none" stroke="#FFFFFF" stroke-width="4.017" stroke-linecap="round" stroke-linejoin="round" stroke-miterlimit="10" d="
			M814.473,432.118c0,21.669-17.599,39.239-39.306,39.239c-21.704,0-39.3-17.57-39.3-39.239c0-21.673,17.596-39.249,39.3-39.249
			C796.874,392.87,814.473,410.445,814.473,432.118z"/>
		
			<line fill="none" stroke="#FFFFFF" stroke-width="4.017" stroke-linecap="round" stroke-linejoin="round" stroke-miterlimit="10" x1="864.545" y1="411.12" x2="879.463" y2="432.477"/>
		
			<path fill="none" stroke="#FFFFFF" stroke-width="4.017" stroke-linecap="round" stroke-linejoin="round" stroke-miterlimit="10" d="
			M730.337,396.661c53.219,45.697,124.224,15.694,124.224,15.694s27.836-9.263,27.836-26.658c0-13.072-9.807-21.871-21.905-21.871
			h-20.925v85.225"/>
		
			<line fill="none" stroke="#FFFFFF" stroke-width="4.017" stroke-linecap="round" stroke-linejoin="round" stroke-miterlimit="10" x1="615.236" y1="332.318" x2="632.046" y2="354.21"/>
		
			<path fill="none" stroke="#FFFFFF" stroke-width="4.017" stroke-linecap="round" stroke-linejoin="round" stroke-miterlimit="10" d="
			M587.56,372.996v-85.225h20.936c12.091,0,21.905,8.793,21.905,21.869c0,17.391-27.839,26.66-27.839,26.66
			S538,365.559,484.781,319.86c0,0-17.661-14.133-29.352-46.963"/>
		
			<line fill="none" stroke="#FFFFFF" stroke-width="4.017" stroke-linecap="round" stroke-linejoin="round" stroke-miterlimit="10" x1="653.233" y1="346.91" x2="653.233" y2="287.813"/>
		
			<line fill="none" stroke="#FFFFFF" stroke-width="4.017" stroke-linecap="round" stroke-linejoin="round" stroke-miterlimit="10" x1="653.233" y1="270.298" x2="653.233" y2="263.005"/>
		
			<line fill="none" stroke="#FFFFFF" stroke-width="4.017" stroke-linecap="round" stroke-linejoin="round" stroke-miterlimit="10" x1="904.506" y1="423.327" x2="904.506" y2="364.228"/>
		
			<line fill="none" stroke="#FFFFFF" stroke-width="4.017" stroke-linecap="round" stroke-linejoin="round" stroke-miterlimit="10" x1="904.506" y1="346.72" x2="904.506" y2="339.42"/>
		
			<path fill="none" stroke="#FFFFFF" stroke-width="4.017" stroke-linecap="round" stroke-linejoin="round" stroke-miterlimit="10" d="
			M561.014,383.98V242.986c0,0-95.353,39.394-95.353,183.856c0,0,1.096,34.287,7.822,51.759"/>
		
			<path fill="none" stroke="#FFFFFF" stroke-width="4.017" stroke-linecap="round" stroke-linejoin="round" stroke-miterlimit="10" d="
			M658.413,464.696v6.646c0,9.144-7.428,16.561-16.582,16.561c-9.158,0-16.583-7.417-16.583-16.561
			c0-9.142,7.425-16.553,16.583-16.553c-6.784,0-12.283-5.49-12.283-12.264c0-6.774,5.499-12.264,12.283-12.264
			c0,0,6.024,0.164,8.785,3.417"/>
		
			<path fill="none" stroke="#FFFFFF" stroke-width="4.017" stroke-linecap="round" stroke-linejoin="round" stroke-miterlimit="10" d="
			M645.597,465.483c1.082-1.568,2.75-2.537,4.656-2.883c2.421-0.423,5.253,0.165,7.741,1.893l0.171,0.136
			c4.493,3.086,10.102,2.718,12.544-0.82"/>
	</g>
	<g>
		<g>
			
				<line fill="none" stroke="#FFFFFF" stroke-width="1.339" stroke-linecap="round" stroke-linejoin="round" stroke-miterlimit="10" x1="264.797" y1="396.71" x2="436.966" y2="396.71"/>
			
				<line fill="none" stroke="#FFFFFF" stroke-width="1.339" stroke-linecap="round" stroke-linejoin="round" stroke-miterlimit="10" x1="944.636" y1="396.71" x2="1116.803" y2="396.71"/>
		</g>
		<g>
			
				<line fill="none" stroke="#FFFFFF" stroke-width="1.339" stroke-linecap="round" stroke-linejoin="round" stroke-miterlimit="10" x1="264.797" y1="448.001" x2="436.966" y2="448.001"/>
			
				<line fill="none" stroke="#FFFFFF" stroke-width="1.339" stroke-linecap="round" stroke-linejoin="round" stroke-miterlimit="10" x1="944.636" y1="448.001" x2="1116.803" y2="448.001"/>
		</g>
		<g>
			<text transform="matrix(1.0015 0 0 1 1065.6523 384.2441)"><tspan x="0" y="0" fill="#FFFFFF" font-family="'BauerBodoni-Bold'" font-size="25.4223">ENS</tspan><tspan x="-38.158" y="48.168" fill="#FFFFFF" font-family="'BauerBodoni-Bold'" font-size="25.4223">CASEM</tspan></text>
		</g>
		<g>
			<text transform="matrix(1.0015 0 0 1 264.9014 432.9434)" fill="#FFFFFF" font-family="'BauerBodoni-Bold'" font-size="25.4223">JUNY’15</text>
		</g>
		<text transform="matrix(1.0015 0 0 1 264.9014 382.04)" fill="#FFFFFF" font-family="'BauerBodoni-Bold'" font-size="72.638">27 </text>
	</g>
</g>
</svg>
