<?xml version="1.0" encoding="utf-8"?>
<!-- Generator: Adobe Illustrator 16.0.0, SVG Export Plug-In . SVG Version: 6.00 Build 0)  -->
<!DOCTYPE svg PUBLIC "-//W3C//DTD SVG 1.1//EN" "http://www.w3.org/Graphics/SVG/1.1/DTD/svg11.dtd">
<svg version="1.1" id="Capa_1" xmlns="http://www.w3.org/2000/svg" xmlns:xlink="http://www.w3.org/1999/xlink" x="0px" y="0px"
	 width="320px" height="480px" viewBox="0 0 320 480" enable-background="new 0 0 320 480" xml:space="preserve">
<g>
	<rect fill="#0DC9B7" width="320" height="480.667"/>
</g>
<g>
	<path opacity="0.3" fill="#FFFFFF" d="M221.31,136.967c0,38.999-31.616,70.615-70.614,70.615
		c-39.001,0-70.615-31.616-70.615-70.615s31.614-70.615,70.615-70.615C189.694,66.352,221.31,97.968,221.31,136.967"/>
	<g>
		
			<path fill="none" stroke="#FFFFFF" stroke-width="1.5025" stroke-linecap="round" stroke-linejoin="round" stroke-miterlimit="10" d="
			M80.033,149.902l94.959-40.298c0-5.158-4.181-9.341-9.341-9.341s-9.345,4.183-9.345,9.341l0.015,78.583
			c0,0,12.911-23.156,38.224-20.662c26.441,2.601,41.62-6.172,47.357-23.787"/>
		
			<path fill="none" stroke="#FFFFFF" stroke-width="1.5025" stroke-linecap="round" stroke-linejoin="round" stroke-miterlimit="10" d="
			M196.473,144.778c0,8.112-6.578,14.688-14.69,14.688c-8.108,0-14.688-6.575-14.688-14.688s6.579-14.691,14.688-14.691
			C189.895,130.087,196.473,136.666,196.473,144.778z"/>
		
			<line fill="none" stroke="#FFFFFF" stroke-width="1.5025" stroke-linecap="round" stroke-linejoin="round" stroke-miterlimit="10" x1="215.189" y1="136.918" x2="220.763" y2="144.912"/>
		
			<path fill="none" stroke="#FFFFFF" stroke-width="1.5025" stroke-linecap="round" stroke-linejoin="round" stroke-miterlimit="10" d="
			M165.029,131.505c19.889,17.105,46.43,5.875,46.43,5.875s10.403-3.468,10.403-9.978c0-4.894-3.664-8.187-8.188-8.187h-7.818
			v31.899"/>
		
			<line fill="none" stroke="#FFFFFF" stroke-width="1.5025" stroke-linecap="round" stroke-linejoin="round" stroke-miterlimit="10" x1="122.008" y1="107.421" x2="128.291" y2="115.615"/>
		
			<path fill="none" stroke="#FFFFFF" stroke-width="1.5025" stroke-linecap="round" stroke-linejoin="round" stroke-miterlimit="10" d="
			M111.666,122.648V90.745h7.824c4.518,0,8.189,3.295,8.189,8.187c0,6.512-10.408,9.979-10.408,9.979s-24.129,10.952-44.02-6.152
			c0,0-6.601-5.292-10.972-17.58"/>
		
			<line fill="none" stroke="#FFFFFF" stroke-width="1.5025" stroke-linecap="round" stroke-linejoin="round" stroke-miterlimit="10" x1="136.21" y1="112.882" x2="136.21" y2="90.764"/>
		
			<line fill="none" stroke="#FFFFFF" stroke-width="1.5025" stroke-linecap="round" stroke-linejoin="round" stroke-miterlimit="10" x1="136.21" y1="84.208" x2="136.21" y2="81.477"/>
		
			<line fill="none" stroke="#FFFFFF" stroke-width="1.5025" stroke-linecap="round" stroke-linejoin="round" stroke-miterlimit="10" x1="230.126" y1="141.486" x2="230.126" y2="119.364"/>
		
			<line fill="none" stroke="#FFFFFF" stroke-width="1.5025" stroke-linecap="round" stroke-linejoin="round" stroke-miterlimit="10" x1="230.126" y1="112.812" x2="230.126" y2="110.081"/>
		
			<path fill="none" stroke="#FFFFFF" stroke-width="1.5025" stroke-linecap="round" stroke-linejoin="round" stroke-miterlimit="10" d="
			M101.742,126.758V73.984c0,0-35.639,14.743-35.639,68.818c0,0,0.413,12.835,2.926,19.377"/>
		
			<path fill="none" stroke="#FFFFFF" stroke-width="1.5025" stroke-linecap="round" stroke-linejoin="round" stroke-miterlimit="10" d="
			M138.146,156.972v2.489c0,3.422-2.775,6.197-6.197,6.197c-3.423,0-6.198-2.775-6.198-6.197c0-3.423,2.775-6.199,6.198-6.199
			c-2.535,0-4.59-2.055-4.59-4.59c0-2.533,2.055-4.59,4.59-4.59c0,0,2.253,0.063,3.284,1.279"/>
		
			<path fill="none" stroke="#FFFFFF" stroke-width="1.5025" stroke-linecap="round" stroke-linejoin="round" stroke-miterlimit="10" d="
			M133.356,157.265c0.404-0.585,1.028-0.948,1.74-1.078c0.905-0.158,1.964,0.062,2.895,0.709l0.061,0.052
			c1.682,1.155,3.778,1.017,4.689-0.309"/>
	</g>
	<g>
		<text transform="matrix(1 0 0 1 45.0415 261.6655)"><tspan x="0" y="0" fill="#FFFFFF" font-family="'BauerBodoniStd-Black'" font-size="24.2248">GIRA LO SCHERMO </tspan><tspan x="-3.149" y="25.278" fill="#FFFFFF" font-family="'BauerBodoniStd-Black'" font-size="24.2248">PER UNA MIGLIORE </tspan><tspan x="5.403" y="50.556" fill="#FFFFFF" font-family="'BauerBodoniStd-Black'" font-size="24.2248">VISUALIZZAZIONE</tspan></text>
	</g>
	<g>
		<path fill="none" stroke="#FFFFFF" stroke-width="3.1597" stroke-miterlimit="10" d="M165.579,368.26
			c-4.705,4.377-12.065,4.111-16.441-0.593c-4.375-4.705-4.11-12.065,0.593-16.44c4.705-4.378,12.065-4.11,16.44,0.592"/>
		<path fill="none" stroke="#FFFFFF" stroke-width="3.1597" stroke-miterlimit="10" d="M157.79,371.375
			c-6.426,0.074-11.693-5.073-11.769-11.497c-0.072-6.425,5.075-11.693,11.499-11.768s11.693,5.075,11.767,11.5"/>
		<polyline fill="none" stroke="#FFFFFF" stroke-width="3.1597" stroke-miterlimit="10" points="173.406,352.835 169.686,359.937 
			162.583,356.219 		"/>
	</g>
</g>
</svg>
